<svg xmlns="http://www.w3.org/2000/svg" xmlns:xlink="http://www.w3.org/1999/xlink" width="375" zoomAndPan="magnify" viewBox="0 0 375 374.999991" height="374.999991" preserveAspectRatio="xMidYMid meet" version="1.0"><defs><clipPath id="id1"><path d="M 7.265625 0 L 104 0 L 104 96 L 7.265625 96 Z M 7.265625 0 " clip-rule="nonzero"/></clipPath><clipPath id="id2"><path d="M 133 112 L 374.765625 112 L 374.765625 375 L 133 375 Z M 133 112 " clip-rule="nonzero"/></clipPath></defs><path fill="rgb(100%, 100%, 100%)" d="M 13.164062 382.5 L 97.222656 382.5 L 97.222656 120.566406 L 13.164062 120.566406 Z M 13.164062 382.5 " fill-opacity="1" fill-rule="nonzero"/><g clip-path="url(#id1)"><path fill="rgb(100%, 100%, 100%)" d="M 55.191406 0 C 28.800781 0 7.332031 21.480469 7.332031 47.886719 C 7.332031 74.289062 28.800781 95.773438 55.191406 95.773438 C 81.582031 95.773438 103.054688 74.289062 103.054688 47.886719 C 103.054688 21.480469 81.582031 0 55.191406 0 Z M 55.191406 0 " fill-opacity="1" fill-rule="nonzero"/></g><g clip-path="url(#id2)"><path fill="rgb(100%, 100%, 100%)" d="M 374.671875 199.648438 C 373.566406 150.832031 333.625 112.59375 283.746094 112.59375 C 256.132812 112.59375 230.488281 124.835938 213.289062 145.796875 L 213.289062 120.566406 L 133.371094 120.566406 L 133.371094 382.5 L 217.425781 382.5 L 217.425781 231.09375 C 217.425781 210.921875 233.828125 194.511719 253.988281 194.511719 C 274.15625 194.511719 290.558594 210.917969 290.558594 231.09375 L 290.648438 382.5 L 374.699219 382.5 Z M 374.671875 199.648438 " fill-opacity="1" fill-rule="nonzero"/></g></svg>