<svg xmlns="http://www.w3.org/2000/svg" xmlns:xlink="http://www.w3.org/1999/xlink" width="375" zoomAndPan="magnify" viewBox="0 0 375 374.999991" height="374.999991" preserveAspectRatio="xMidYMid meet" version="1.0"><path fill="rgb(100%, 100%, 100%)" d="M 187.71875 0 C 84.480469 0 0.441406 83.96875 0.402344 187.207031 C 0.382812 220.207031 9.027344 252.421875 25.414062 280.808594 L 0 375 L 98.109375 351.820312 C 125.464844 366.742188 156.261719 374.578125 187.609375 374.597656 L 187.683594 374.597656 C 290.902344 374.597656 374.90625 290.609375 374.964844 187.390625 C 375 137.347656 355.539062 90.296875 320.179688 54.894531 C 284.816406 19.515625 237.820312 0.0195312 187.71875 0 Z M 187.683594 37.5 C 227.734375 37.519531 265.371094 53.132812 293.664062 81.410156 C 321.957031 109.722656 337.5 147.339844 337.464844 187.351562 C 337.425781 269.929688 270.257812 337.097656 187.644531 337.097656 C 162.652344 337.078125 137.894531 330.800781 116.089844 318.894531 L 103.453125 312.011719 L 89.5 315.308594 L 52.589844 324.023438 L 61.597656 290.550781 L 65.660156 275.535156 L 57.898438 262.058594 C 44.808594 239.410156 37.882812 213.511719 37.902344 187.207031 C 37.941406 104.667969 105.125 37.5 187.683594 37.5 Z M 121.433594 100.78125 C 118.304688 100.78125 113.242188 101.953125 108.949219 106.640625 C 104.652344 111.308594 92.542969 122.617188 92.542969 145.640625 C 92.542969 168.667969 109.3125 190.925781 111.65625 194.054688 C 113.984375 197.167969 144.03125 245.910156 191.601562 264.660156 C 231.125 280.242188 239.152344 277.167969 247.742188 276.378906 C 256.328125 275.609375 275.445312 265.082031 279.34375 254.148438 C 283.246094 243.21875 283.253906 233.816406 282.09375 231.882812 C 280.929688 229.933594 277.808594 228.773438 273.121094 226.429688 C 268.453125 224.085938 245.445312 212.785156 241.148438 211.230469 C 236.855469 209.675781 233.714844 208.886719 230.601562 213.574219 C 227.492188 218.261719 218.546875 228.773438 215.808594 231.882812 C 213.070312 235.015625 210.351562 235.4375 205.664062 233.09375 C 200.976562 230.730469 185.90625 225.777344 168.015625 209.839844 C 154.105469 197.445312 144.71875 182.152344 141.980469 177.464844 C 139.261719 172.796875 141.722656 170.234375 144.066406 167.90625 C 146.167969 165.808594 148.71875 162.441406 151.0625 159.703125 C 153.386719 156.96875 154.191406 155.015625 155.75 151.902344 C 157.304688 148.792969 156.507812 146.042969 155.347656 143.699219 C 154.183594 141.355469 145.082031 118.246094 140.917969 108.984375 C 137.410156 101.203125 133.707031 101.023438 130.371094 100.890625 C 127.652344 100.777344 124.546875 100.78125 121.433594 100.78125 Z M 121.433594 100.78125 " fill-opacity="1" fill-rule="nonzero"/></svg>